<?xml version="1.0" encoding="utf-8"?>
<!-- Generator: Adobe Illustrator 22.1.0, SVG Export Plug-In . SVG Version: 6.00 Build 0)  -->
<svg version="1.1" id="Layer_1" xmlns="http://www.w3.org/2000/svg" xmlns:xlink="http://www.w3.org/1999/xlink" x="0px" y="0px"
	 viewBox="0 0 148.6 262.4" style="enable-background:new 0 0 148.6 262.4;" xml:space="preserve">
<style type="text/css">
	.st0{display:none;}
	.st1{display:inline;}
</style>
<g id="Layer_2_1_" class="st0">
	<rect x="121.7" y="73.3" class="st1" width="156.7" height="10"/>
	<path class="st1" d="M274.2-32l44.3,44.3l-0.2,267.9H81.7V-32H274.2 M278.3-42H71.7v332.2h256.7l0.2-282L278.3-42L278.3-42z"/>
	<rect x="121.7" y="119" class="st1" width="156.7" height="10"/>
	<rect x="121.7" y="164.7" class="st1" width="156.7" height="10"/>
	<polygon class="st1" points="328.5,13.2 273.3,13.2 273.3,-42 283.3,-37 283.3,3.2 323.5,3.2 	"/>
</g>
<g>
	<path d="M2.8,214c0-5.9,0.6-11.4,1.8-16.4s3.2-9.4,6-13c2.8-3.6,6.6-6.4,11.3-8.4c4.7-2,10.5-3,17.3-3c7.8,0,14.4,1.8,20,5.4
		c5.6,3.6,9.4,9,11.4,16.3H71c1.1-8,4.5-14.4,10.3-19.1c5.8-4.7,13.5-7,23.1-7c5.6,0,11,0.7,16.1,2.2c5.1,1.5,9.6,4,13.4,7.5
		c3.8,3.6,6.9,8.2,9.1,13.9c2.3,5.7,3.4,12.8,3.4,21.2v48.9H2.8V214z M61.7,225.2c0-8-1.4-13.9-4.3-17.6c-2.9-3.7-7.7-5.5-14.6-5.5
		s-11.7,1.7-14.5,5c-2.8,3.4-4.2,8.6-4.2,15.9v10.5h37.6V225.2z M125.1,222.2c0-7-1.5-12.6-4.6-16.9c-3.1-4.3-8.8-6.4-17.1-6.4
		c-4.2,0-7.6,0.6-10.4,1.7c-2.7,1.1-5,2.7-6.6,4.6c-1.7,1.9-2.8,4.3-3.5,6.9c-0.7,2.7-1,5.6-1,8.8v12.5h43.2V222.2z"/>
	<path d="M2.8,149.2v-29h143.6v29H2.8z"/>
	<path d="M44.5,96.2c-9.2-1-17.1-3.2-23.6-6.6c-6.6-3.4-11.7-8.3-15.4-14.8C1.8,68.4,0,59.7,0,48.9C0,38,1.8,29.4,5.5,22.9
		c3.7-6.4,8.8-11.4,15.4-14.8c6.6-3.4,14.4-5.6,23.6-6.6C53.7,0.5,63.7,0,74.6,0c11,0,21,0.5,30.2,1.5c9.1,1,17,3.2,23.5,6.6
		c6.6,3.4,11.6,8.3,15.1,14.8c3.5,6.4,5.2,15.1,5.2,25.9c0,10.9-1.7,19.5-5.2,25.9c-3.5,6.4-8.5,11.4-15.1,14.8
		c-6.6,3.4-14.4,5.6-23.5,6.6c-9.1,1-19.2,1.5-30.2,1.5C63.7,97.7,53.7,97.2,44.5,96.2z M99.2,68.1c6.8-0.5,12.3-1.4,16.5-2.8
		c4.2-1.4,7.3-3.4,9.2-6c1.9-2.6,2.9-6.1,2.9-10.4c0-4.3-1-7.7-2.9-10.4c-1.9-2.6-5-4.6-9.2-6c-4.2-1.4-9.7-2.3-16.5-2.8
		c-6.8-0.5-15-0.7-24.6-0.7s-17.8,0.2-24.5,0.7c-6.7,0.5-12.2,1.4-16.5,2.8c-4.3,1.4-7.4,3.4-9.4,6c-1.9,2.6-2.9,6.1-2.9,10.4
		c0,4.3,1,7.7,2.9,10.4c1.9,2.6,5.1,4.6,9.4,6c4.3,1.4,9.8,2.3,16.5,2.8c6.7,0.5,14.9,0.7,24.5,0.7S92.5,68.5,99.2,68.1z"/>
</g>
</svg>
